<svg xmlns="http://www.w3.org/2000/svg" xmlns:xlink="http://www.w3.org/1999/xlink" version="1.1" x="0px" y="0px" viewBox="0 0 90 112.5" style="enable-background:new 0 0 90 90;" xml:space="preserve"><path d="M81.1918869,48.5238304c-0.4744873-2.9362183-5.3509521-2.0133667-4.9020386,0.7644043  c0.5186157,3.2090454,1.0372314,6.4180298,1.5558472,9.6270752c-2.9575806-5.2831421-8.8153076-7.7650146-14.8803711-8.0830688  c0.0948486-1.861084,0.1078491-3.7022095,0.057373-5.4788208c-0.1193848-4.2012939-1.0899658-8.4456787-4.4400024-11.258606  c-5.1596069-4.3323364-11.819397-3.0313721-17.5426636-0.2999268c-0.9320068-9.048645-5.0270386-17.1048584-15.1635723-19.4371948  c-6.3549194-1.4622192-13.5135508-0.3208618-19.5147705,2.0974722c-1.4804688,0.5966187,2.2922974,3.5809937,3.8745117,2.9434204  c8.7939463-3.5437613,21.5258179-4.5314322,25.2171631,6.251709c1.09375,3.1950073,1.5830078,6.7069702,1.625,10.3237305  c-0.4938965,0.3062744-0.9752808,0.6158447-1.4385986,0.9260254c-8.3768291,5.607666-17.281126,14.468811-19.6983643,24.5858765  c-1.427002,5.972477,1.3695688,17.581852,9.9014292,14.1992226c4.3399658-1.7206421,7.3300152-6.9189453,9.2912579-10.8418579  c3.5634766-7.1275673,5.4336548-15.1740761,5.9942017-23.0946693c0.0722656-1.0215454,0.1135254-2.0475464,0.1246338-3.0717163  c1.5721436-0.9265137,3.1056519-1.7179565,4.5471191-2.3485107c2.416687-1.0571899,5.7284546-2.3220825,8.4110718-1.7367554  c3.6317139,0.7923584,4.130188,5.2988281,4.2824097,8.4306641c0.1072998,2.2080688,0.1466675,5.0079956-0.0418091,7.9620361  c-10.0491943,1.1975708-18.7838135,8.0068359-13.5003052,17.3965492c4.0213013,7.1464844,11.4880371,4.0166016,14.460083-2.0024414  c1.899231-3.8463173,2.8928223-8.2782021,3.3383789-12.7167397c5.1893311-0.1965332,10.1621094,1.8374634,11.9320679,7.0927734  c-2.7406616-1.0869141-5.4813232-2.1738892-8.2219849-3.2608032c-2.6512451-1.0514526-5.0383911,3.0530396-2.0753174,4.2282104  c5.3595581,2.1255493,10.7191772,4.2511635,16.0787354,6.3767738c1.494873,0.5928955,3.770752-0.7509766,3.4887085-2.4962769  C83.0320358,59.9095116,82.1119919,54.2167015,81.1918869,48.5238304z M31.7863102,60.2351952  c-1.4998169,3.4122314-3.3607788,6.9033241-5.9471436,9.6289101c-0.9295044,0.9795532-2.25354,2.371521-3.6113892,2.7738037  c-1.6907349,0.5007935-1.6375122-0.5592041-2.0388794-2.7637939c-1.9134521-10.5099525,7.1842041-21.415226,16.6099224-28.267765  C36.0968552,48.2203026,34.1600266,54.8348656,31.7863102,60.2351952z M51.5030441,68.561676  c-2.479126,1.6329346-2.8134766,0.5068359-3.2189941-2.2285156c-0.6022949-4.0626869,1.3647461-7.4175453,4.7059937-9.6137733  c1.5192871-0.9985962,3.2799072-1.7833862,5.1315918-2.3115234C57.377861,60.1622581,55.5646286,65.8865051,51.5030441,68.561676z"/></svg>